<svg width="24" height="24" viewBox="0 0 24 24" fill="none" xmlns="http://www.w3.org/2000/svg">
<path d="M10 2.75C14.0041 2.75 17.25 5.99594 17.25 10C17.25 11.7319 16.6427 13.3219 15.6295 14.5688L20.5303 19.4697C20.8232 19.7626 20.8232 20.2374 20.5303 20.5303C20.2641 20.7966 19.8474 20.8208 19.5538 20.6029L19.4697 20.5303L14.5688 15.6295C13.3219 16.6427 11.7319 17.25 10 17.25C5.99594 17.25 2.75 14.0041 2.75 10C2.75 5.99594 5.99594 2.75 10 2.75ZM10 4.25C6.82436 4.25 4.25 6.82436 4.25 10C4.25 13.1756 6.82436 15.75 10 15.75C13.1756 15.75 15.75 13.1756 15.75 10C15.75 6.82436 13.1756 4.25 10 4.25Z" fill="#6C757D"/>
<path d="M9.23295 11.5455V11.4943C9.23864 10.9517 9.29545 10.5199 9.40341 10.1989C9.51136 9.87784 9.66477 9.6179 9.86364 9.41903C10.0625 9.22017 10.3011 9.03693 10.5795 8.86932C10.7472 8.76705 10.8977 8.64631 11.0312 8.5071C11.1648 8.36506 11.2699 8.2017 11.3466 8.01705C11.4261 7.83239 11.4659 7.62784 11.4659 7.40341C11.4659 7.125 11.4006 6.88352 11.2699 6.67898C11.1392 6.47443 10.9645 6.31676 10.7457 6.20597C10.527 6.09517 10.2841 6.03977 10.017 6.03977C9.78409 6.03977 9.55966 6.08807 9.34375 6.18466C9.12784 6.28125 8.94744 6.43324 8.80256 6.64062C8.65767 6.84801 8.57386 7.11932 8.55114 7.45455H7.47727C7.5 6.97159 7.625 6.55824 7.85227 6.21449C8.08239 5.87074 8.38494 5.60795 8.75994 5.42614C9.13778 5.24432 9.55682 5.15341 10.017 5.15341C10.517 5.15341 10.9517 5.25284 11.321 5.4517C11.6932 5.65057 11.9801 5.9233 12.1818 6.26989C12.3864 6.61648 12.4886 7.01136 12.4886 7.45455C12.4886 7.76705 12.4403 8.04972 12.3438 8.30256C12.25 8.5554 12.1136 8.78125 11.9347 8.98011C11.7585 9.17898 11.5455 9.35511 11.2955 9.50852C11.0455 9.66477 10.8452 9.82955 10.6946 10.0028C10.544 10.1733 10.4347 10.3764 10.3665 10.6122C10.2983 10.848 10.2614 11.142 10.2557 11.4943V11.5455H9.23295ZM9.77841 14.0682C9.56818 14.0682 9.38778 13.9929 9.23722 13.8423C9.08665 13.6918 9.01136 13.5114 9.01136 13.3011C9.01136 13.0909 9.08665 12.9105 9.23722 12.7599C9.38778 12.6094 9.56818 12.5341 9.77841 12.5341C9.98864 12.5341 10.169 12.6094 10.3196 12.7599C10.4702 12.9105 10.5455 13.0909 10.5455 13.3011C10.5455 13.4403 10.5099 13.5682 10.4389 13.6847C10.3707 13.8011 10.2784 13.8949 10.1619 13.9659C10.0483 14.0341 9.92045 14.0682 9.77841 14.0682Z" fill="#6C757D"/>
</svg>
