<svg width="144" height="148" viewBox="0 0 144 148" fill="none" xmlns="http://www.w3.org/2000/svg">
<g filter="url(#filter0_d_915_24)">
<circle cx="72" cy="54" r="50" fill="white"/>
</g>
<path d="M11.185 113.836C8.48503 113.836 3.37303 113.836 3.37303 113.836C2.36503 113.836 1.57303 114.628 1.57303 115.636V137.164C1.57303 138.172 2.36503 138.964 3.37303 138.964C4.34503 138.964 5.17303 138.172 5.17303 137.164V128.272C11.077 128.272 11.221 128.272 11.329 128.236C15.289 127.804 18.205 124.744 18.205 121C18.205 117.148 15.073 113.98 11.185 113.836ZM5.17303 124.672V117.436H10.897C12.949 117.436 14.605 118.984 14.641 121C14.605 123.052 12.949 124.672 10.897 124.672H5.17303ZM27.1465 120.928C22.1425 120.928 18.1105 124.96 18.1105 129.964C18.1105 134.932 22.1425 139 27.1465 139C28.4785 139 30.3145 139.036 32.6905 137.452C33.5185 136.912 33.9865 135.976 33.5545 135.076C33.1225 134.212 32.0065 133.708 31.1785 134.248C29.4505 135.364 27.9745 135.436 27.1465 135.436C24.7345 135.436 22.7185 133.888 21.9625 131.728H34.3825C35.3905 131.728 36.1825 130.936 36.1825 129.964C36.1825 124.096 31.5025 120.928 27.1465 120.928ZM27.1465 124.492C29.3065 124.492 31.6105 125.644 32.3665 128.164H21.9625C22.7185 126.04 24.7345 124.492 27.1465 124.492ZM47.4143 120.856C42.4103 120.856 38.3783 124.888 38.3783 129.892C38.3783 134.86 42.4103 138.928 47.4143 138.928C52.3823 138.928 56.4503 134.86 56.4503 129.892V129.856V113.728C56.4503 112.756 55.6583 111.964 54.6503 111.964C53.6783 111.964 52.8863 112.756 52.8863 113.728V122.692C51.3743 121.54 49.4663 120.856 47.4143 120.856ZM47.4143 135.364C44.3903 135.364 41.9423 132.88 41.9423 129.892C41.9423 126.868 44.3903 124.42 47.4143 124.42C50.4383 124.42 52.8863 126.868 52.8863 129.856V129.892C52.8863 132.916 50.4383 135.364 47.4143 135.364ZM71.4828 120.964C70.4748 120.964 69.6828 121.756 69.6828 122.728V131.728C69.6828 133.78 68.0268 135.472 65.9388 135.472C63.8868 135.472 62.2308 133.78 62.2308 131.728V122.728C62.2308 121.756 61.4388 120.964 60.4308 120.964C59.4588 120.964 58.6668 121.756 58.6668 122.728V131.764V131.8C58.7028 135.796 61.9428 139.036 65.9388 139.036C69.9708 139.036 73.2108 135.796 73.2468 131.8V131.764V122.728C73.2468 121.756 72.4548 120.964 71.4828 120.964ZM77.2715 139.036C78.2435 139.036 79.0355 138.244 79.0355 137.236V113.8C79.0355 112.828 78.2435 112.036 77.2715 112.036C76.2635 112.036 75.4715 112.828 75.4715 113.8V137.236C75.4715 138.244 76.2635 139.036 77.2715 139.036ZM83.0723 139.036C84.0443 139.036 84.8363 138.244 84.8363 137.236V122.728C84.8363 121.756 84.0443 120.964 83.0723 120.964C82.0643 120.964 81.2723 121.756 81.2723 122.728V137.236C81.2723 138.244 82.0643 139.036 83.0723 139.036ZM83.0723 117.364C83.5403 117.364 84.0083 117.184 84.3323 116.86C84.6562 116.536 84.8363 116.068 84.8363 115.6C84.8363 115.132 84.6562 114.664 84.3323 114.34C84.0083 114.016 83.5403 113.8 83.0723 113.8C82.6043 113.8 82.1363 114.016 81.8123 114.34C81.4883 114.664 81.2723 115.132 81.2723 115.6C81.2723 116.068 81.4883 116.536 81.8123 116.86C82.1363 117.184 82.6043 117.364 83.0723 117.364Z" fill="#0A62A9"/>
<path d="M105.418 139.036C108.514 139.036 111.538 137.884 113.842 135.832C116.146 133.744 117.622 130.936 117.982 127.876C118.198 126.004 118.018 124.204 117.478 122.476C116.938 120.784 116.074 119.272 114.922 117.976C113.77 116.644 112.33 115.6 110.71 114.88C109.018 114.16 107.218 113.764 105.31 113.764H100.09C99.1176 113.764 98.2896 114.592 98.2896 115.6V137.236C98.2896 138.208 99.1176 139.036 100.09 139.036H105.418ZM101.89 135.436V117.364H105.31C108.046 117.364 110.53 118.444 112.258 120.352C113.95 122.26 114.706 124.78 114.382 127.48C113.842 132.016 109.99 135.436 105.418 135.436H101.89ZM122.025 139.036C122.997 139.036 123.789 138.244 123.789 137.236V122.728C123.789 121.756 122.997 120.964 122.025 120.964C121.017 120.964 120.225 121.756 120.225 122.728V137.236C120.225 138.244 121.017 139.036 122.025 139.036ZM122.025 117.364C122.493 117.364 122.961 117.184 123.285 116.86C123.609 116.536 123.789 116.068 123.789 115.6C123.789 115.132 123.609 114.664 123.285 114.34C122.961 114.016 122.493 113.8 122.025 113.8C121.557 113.8 121.089 114.016 120.765 114.34C120.441 114.664 120.225 115.132 120.225 115.6C120.225 116.068 120.441 116.536 120.765 116.86C121.089 117.184 121.557 117.364 122.025 117.364ZM134.882 120.964C129.914 120.964 125.846 124.996 125.846 130V137.236C125.846 138.208 126.638 139.036 127.646 139.036C128.618 139.036 129.41 138.208 129.41 137.236V130C129.41 126.976 131.858 124.528 134.882 124.528C135.89 124.528 136.682 123.7 136.682 122.728C136.682 121.756 135.89 120.964 134.882 120.964ZM140.658 139.036C141.63 139.036 142.422 138.244 142.422 137.236V122.728C142.422 121.756 141.63 120.964 140.658 120.964C139.65 120.964 138.858 121.756 138.858 122.728V137.236C138.858 138.244 139.65 139.036 140.658 139.036ZM140.658 117.364C141.126 117.364 141.594 117.184 141.918 116.86C142.242 116.536 142.422 116.068 142.422 115.6C142.422 115.132 142.242 114.664 141.918 114.34C141.594 114.016 141.126 113.8 140.658 113.8C140.19 113.8 139.722 114.016 139.398 114.34C139.074 114.664 138.858 115.132 138.858 115.6C138.858 116.068 139.074 116.536 139.398 116.86C139.722 117.184 140.19 117.364 140.658 117.364Z" fill="#6AC259"/>
<g filter="url(#filter1_i_915_24)">
<path d="M44 52H59V92C50.7157 92 44 85.2843 44 77V52Z" fill="#0A62A9"/>
<path fill-rule="evenodd" clip-rule="evenodd" d="M44 30C44 22.8203 49.8203 17 57 17H63.5C74.2696 17 83 25.7304 83 36.5C83 47.2696 74.2696 56 63.5 56H44V30ZM69.6023 36.7416C70.0441 37.8767 71.554 40.535 74.0597 42.087C68.1341 53.0315 56.0454 49.8156 52.5088 43.5553C50.0621 39.2241 48.3612 25.5713 66.7954 22.7698C59.9017 19.2937 40.8132 30.4093 49.3384 44.6928C57.8658 58.9798 77.7761 50.6032 78.0561 40.8361C78.3564 30.3607 74.5203 27.0216 72.5483 25.305L72.5482 25.305C72.3917 25.1688 72.247 25.0428 72.1171 24.9243C70.3486 23.312 68.7854 23.4857 69.7556 24.4312C70.7257 25.3768 75.1448 33.7998 73.9644 35.6531C73.1709 36.8989 72.7003 36.3983 71.854 35.498C71.4414 35.059 70.9394 34.5249 70.267 34.052C68.2159 32.6092 66.581 34.3532 67.4901 34.5717C68.2174 34.7465 69.2013 36.0911 69.6023 36.7416ZM68.4545 25.7398C69.1917 25.6796 70.2727 26.1768 70.4446 26.4556L71.9914 28.9645C67.7784 26.5271 67.7173 25.8 68.4545 25.7398ZM69.401 29.2243C68.9336 29.2316 68.7105 30.3896 72.926 31.2472C72.7659 30.788 72.3986 29.8239 72.2099 29.6422C71.974 29.4149 69.8684 29.217 69.401 29.2243ZM71.0005 31.2208C71.4944 31.3454 72.1656 31.5148 72.8374 31.3792L73.302 32.7624C70.2639 32.5447 70.0325 31.3913 70.2667 31.1594C70.3664 31.0608 70.6348 31.1285 71.0005 31.2208Z" fill="#0A62A9"/>
</g>
<g filter="url(#filter2_d_915_24)">
<path fill-rule="evenodd" clip-rule="evenodd" d="M68 40C65.2386 40 63 42.2386 63 45V92H65.5237C66.4775 90.8469 67.4314 89.4993 68.375 88.0109C66.6011 84.448 65.4914 77.8261 65.8333 78.0726C65.9643 78.1671 66.3735 79.2839 66.9115 80.7525L66.9115 80.7526C67.5841 82.5885 68.4581 84.9742 69.2419 86.5997C70.7558 84.0608 72.2343 81.1965 73.6335 78.2328C72.6945 74.2577 72.8972 67.7528 73.1314 68.419C73.2066 68.6328 73.3404 69.4801 73.52 70.6182C73.7771 72.2464 74.1282 74.4697 74.536 76.2844C76.1535 72.7272 77.6458 69.0996 78.9392 65.7798C77.6281 64.0944 77.4887 58.1393 77.978 60.1243C78.0346 60.3537 78.0931 60.5982 78.1537 60.8517C78.4772 62.2046 78.8619 63.8132 79.3413 64.7411C81.2702 59.7278 82.7078 55.5417 83.3847 53.5708C83.6347 52.843 83.7809 52.4173 83.8097 52.3636C83.9344 52.1318 83.7998 57.9421 82.5031 65.6129C83.3065 64.8692 84.292 63.4433 84.9357 62.5118C85.1586 62.1893 85.3405 61.9261 85.4597 61.771C86.0889 60.9523 84.1855 66.1146 82.3261 66.8725L82.2868 66.8481C81.6365 70.4399 80.7332 74.3741 79.4907 78.2513C81.2229 77.2796 83.9229 75.2043 85.7295 73.8157L85.7296 73.8156L85.7297 73.8155C86.8952 72.9197 87.6887 72.3098 87.6106 72.4664C87.372 72.9452 82.2058 78.8574 78.8408 80.1831C77.7282 83.3351 76.3782 86.404 74.7434 89.1702C76.47 88.651 79.0667 87.5044 81.0507 86.6282L81.0508 86.6282L81.0511 86.6281L81.0512 86.628L81.0516 86.6278C82.6453 85.924 83.8435 85.3949 83.8776 85.5061C83.97 85.808 77.3202 90.3042 73.6439 90.9179C73.3973 91.2857 73.1449 91.6466 72.8866 92H76C89.8071 92 101 80.8071 101 67V65C101 51.1929 89.8071 40 76 40H68Z" fill="#50B83C" fill-opacity="0.85" shape-rendering="crispEdges"/>
</g>
<defs>
<filter id="filter0_d_915_24" x="15" y="0" width="114" height="114" filterUnits="userSpaceOnUse" color-interpolation-filters="sRGB">
<feFlood flood-opacity="0" result="BackgroundImageFix"/>
<feColorMatrix in="SourceAlpha" type="matrix" values="0 0 0 0 0 0 0 0 0 0 0 0 0 0 0 0 0 0 127 0" result="hardAlpha"/>
<feOffset dy="3"/>
<feGaussianBlur stdDeviation="3.5"/>
<feComposite in2="hardAlpha" operator="out"/>
<feColorMatrix type="matrix" values="0 0 0 0 0 0 0 0 0 0 0 0 0 0 0 0 0 0 0.4 0"/>
<feBlend mode="normal" in2="BackgroundImageFix" result="effect1_dropShadow_915_24"/>
<feBlend mode="normal" in="SourceGraphic" in2="effect1_dropShadow_915_24" result="shape"/>
</filter>
<filter id="filter1_i_915_24" x="44" y="17" width="39" height="77" filterUnits="userSpaceOnUse" color-interpolation-filters="sRGB">
<feFlood flood-opacity="0" result="BackgroundImageFix"/>
<feBlend mode="normal" in="SourceGraphic" in2="BackgroundImageFix" result="shape"/>
<feColorMatrix in="SourceAlpha" type="matrix" values="0 0 0 0 0 0 0 0 0 0 0 0 0 0 0 0 0 0 127 0" result="hardAlpha"/>
<feOffset dy="2"/>
<feGaussianBlur stdDeviation="2"/>
<feComposite in2="hardAlpha" operator="arithmetic" k2="-1" k3="1"/>
<feColorMatrix type="matrix" values="0 0 0 0 0 0 0 0 0 0 0 0 0 0 0 0 0 0 0.5 0"/>
<feBlend mode="normal" in2="shape" result="effect1_innerShadow_915_24"/>
</filter>
<filter id="filter2_d_915_24" x="59" y="39" width="46" height="60" filterUnits="userSpaceOnUse" color-interpolation-filters="sRGB">
<feFlood flood-opacity="0" result="BackgroundImageFix"/>
<feColorMatrix in="SourceAlpha" type="matrix" values="0 0 0 0 0 0 0 0 0 0 0 0 0 0 0 0 0 0 127 0" result="hardAlpha"/>
<feOffset dy="3"/>
<feGaussianBlur stdDeviation="2"/>
<feComposite in2="hardAlpha" operator="out"/>
<feColorMatrix type="matrix" values="0 0 0 0 0 0 0 0 0 0 0 0 0 0 0 0 0 0 0.3 0"/>
<feBlend mode="normal" in2="BackgroundImageFix" result="effect1_dropShadow_915_24"/>
<feBlend mode="normal" in="SourceGraphic" in2="effect1_dropShadow_915_24" result="shape"/>
</filter>
</defs>
</svg>
